# xmcd
#
# Track frame offsets: 
#        150
#        10833
#        21791
#        30221
#        41645
#        57657
#        69325
#        81126
#        99872
#        113688
#        127828
#        142575
#        157991
#        167002
#        178631
#        188831
#        203223
#        214620
#        225070
#        234933
#        243725
#        257317
#        271474
#        281015
#        293113
#
# Disc length: 4146 seconds
#
# Revision: 1
# Processed by: cddbd v1.5.2PL0 Copyright (c) Steve Scherf et al.
# Submitted via: ExactAudioCopy v0.99pb4
#
DISCID=3d103019
DTITLE=Various Artist - 30 Años de Soul, Blues y Rock'n'Roll... (Rock
DTITLE=delux 232 - Ace sampler)
DYEAR=2005
DGENRE=R&B
TTITLE0=Damned, The - Love Song
TTITLE1=Count Bishops, The - I Want Candy
TTITLE2=Scotts Squirrel Barkers, The - Katie Cline
TTITLE3=Prisioners, The - Hurricane
TTITLE4=Nips, The - Gabrielle
TTITLE5=Pat Powdrill and The Powerdrills - They Are The Lonely
TTITLE6=Carol Connors - My Baby Looks, But He Don't Touch
TTITLE7=Camille Yarbrough - Take Yo' Praise
TTITLE8=Lowell Fulson - Tramp
TTITLE9=Jean Jacques Perrey - EVA
TTITLE10=Fatback Band, The - Wicky Wacky
TTITLE11=Millie Jackson - It Hurts So Good
TTITLE12=Ike and Tina Turner - I Can't Believe What You Say
TTITLE13=Mary Love - Lay This Burden Down
TTITLE14=Olympics, The - Baby, Do The Philly Dog
TTITLE15=Bettye Swann - Make Me Yours
TTITLE16=James Carr - The Dark End Of The Street
TTITLE17=Rocky Sharpe and The Replays - Rama Lama Ding Dong
TTITLE18=Richard Berry - Louie Louie
TTITLE19=Charlie Feathers with Jody and Jerry - Tongue-tied Jill
TTITLE20=B.B. King - Three O'Clock Blues
TTITLE21=John Lee Hooker - Boogie Chillen
TTITLE22=Zion Travelers, The - The Blood
TTITLE23=Gosdin Brothers, The - There Must Be A Someone (I Can Turn To
TTITLE23=)
TTITLE24=Ian and Sylvis - Early Morning Rain
EXTD=
EXTT0=
EXTT1=
EXTT2=
EXTT3=
EXTT4=
EXTT5=
EXTT6=
EXTT7=
EXTT8=
EXTT9=
EXTT10=
EXTT11=
EXTT12=
EXTT13=
EXTT14=
EXTT15=
EXTT16=
EXTT17=
EXTT18=
EXTT19=
EXTT20=
EXTT21=
EXTT22=
EXTT23=
EXTT24=
PLAYORDER=
